<?xml version="1.0" standalone="no"?>
<!DOCTYPE svg PUBLIC "-//W3C//DTD SVG 20010904//EN"
 "http://www.w3.org/TR/2001/REC-SVG-20010904/DTD/svg10.dtd">
<svg version="1.0" xmlns="http://www.w3.org/2000/svg"
 width="228.000000pt" height="228.000000pt" viewBox="0 0 228.000000 228.000000"
 preserveAspectRatio="xMidYMid meet">
<metadata>
Created by potrace 1.11, written by Peter Selinger 2001-2013
</metadata>
<g transform="translate(0.000000,228.000000) scale(0.100000,-0.100000)"
fill="#000000" stroke="none">
<path d="M1100 2181 c0 -4 -16 -7 -35 -9 -86 -6 -222 -77 -285 -148 -139 -159
-167 -363 -76 -549 143 -290 528 -360 763 -139 255 241 186 655 -132 800 -67
31 -235 63 -235 45z"/>
<path d="M78 1200 l-23 -6 -2 -336 c-2 -263 1 -338 11 -347 8 -7 106 -11 274
-11 288 -1 329 -7 440 -61 107 -52 207 -175 214 -263 1 -15 10 -33 18 -41 14
-12 19 -13 36 -1 19 13 19 27 19 352 -1 253 -5 349 -14 379 -57 172 -218 298
-421 331 -53 8 -519 11 -552 4z"/>
<path d="M1610 1189 c-141 -32 -265 -113 -337 -219 -60 -89 -62 -107 -63 -485
0 -323 1 -345 18 -354 27 -15 41 0 57 62 32 124 124 216 270 273 28 10 25 10
70 19 62 13 65 13 325 14 135 1 252 5 260 11 20 13 22 666 2 683 -23 19 -515
16 -602 -4z"/>
</g>
</svg>
